<?xml version="1.0" standalone="no"?>
<!DOCTYPE svg PUBLIC "-//W3C//DTD SVG 1.1//EN" "http://www.w3.org/Graphics/SVG/1.1/DTD/svg11.dtd">
<svg width="256px" height="128px" version="1.1" xmlns="http://www.w3.org/2000/svg" xmlns:xlink="http://www.w3.org/1999/xlink" xml:space="preserve" style="fill-rule:evenodd;clip-rule:evenodd;stroke-linejoin:round;stroke-miterlimit:1.41421;">
    <g>
        <g id="Layer1">
            <g>
                <path d="M0,16.9398L0,10C0,4.47715 4.47715,0 10,0L246.052,0C251.575,0 256.052,4.47715 256.052,10L256.052,118C256.052,123.523 251.575,128 246.052,128L10,128C4.47715,128 0,123.523 0,118L0,103.84C23.9974,103.839 43.4499,84.386 43.4499,60.3897C43.4499,36.3935 23.9974,16.9406 0,16.9398Z" style="fill:rgb(3,20,25);"/>
                <path d="M10,128L9.87075,127.999L9.7419,127.997L9.61344,127.993L9.4854,127.987L9.35778,127.98L9.2306,127.971L9.10385,127.96L8.97756,127.948L8.85173,127.935L8.72637,127.92L8.60149,127.903L8.4771,127.885L8.35321,127.865L8.22983,127.844L8.10698,127.821L7.98465,127.797L7.86286,127.771L7.74163,127.744L7.62095,127.715L7.50084,127.685L7.38132,127.654L7.26238,127.621L7.14404,127.586L7.02631,127.55L6.90919,127.513L6.79271,127.475L6.67686,127.435L6.56166,127.393L6.44712,127.35L6.33325,127.306L6.22006,127.261L6.10755,127.214L5.99574,127.166L5.88463,127.117L5.77425,127.066L5.66459,127.014L5.55566,126.961L5.44748,126.906L5.34006,126.85L5.23341,126.793L5.12753,126.735L5.02243,126.675L4.91813,126.614L4.81464,126.552L4.71196,126.489L4.6101,126.425L4.50908,126.359L4.4089,126.292L4.30958,126.224L4.21113,126.155L4.11354,126.085L4.01684,126.013L3.92103,125.941L3.82613,125.867L3.73214,125.792L3.63907,125.716L3.54694,125.64L3.45574,125.561L3.3655,125.482L3.27623,125.402L3.18792,125.321L3.1006,125.239L3.01426,125.155L2.92893,125.071L2.84461,124.986L2.76131,124.899L2.67905,124.812L2.59782,124.724L2.51764,124.634L2.43853,124.544L2.36048,124.453L2.28351,124.361L2.20764,124.268L2.13286,124.174L2.05919,124.079L1.98665,123.983L1.91523,123.886L1.84495,123.789L1.77582,123.69L1.70784,123.591L1.64104,123.491L1.57541,123.39L1.51097,123.288L1.44773,123.185L1.3857,123.082L1.32489,122.978L1.2653,122.872L1.20695,122.767L1.14984,122.66L1.09399,122.553L1.03941,122.444L0.986109,122.335L0.93409,122.226L0.883367,122.115L0.833951,122.004L0.78585,121.892L0.739074,121.78L0.693633,121.667L0.649538,121.553L0.606797,121.438L0.565421,121.323L0.52542,121.207L0.486803,121.091L0.44958,120.974L0.413761,120.856L0.379356,120.738L0.346375,120.619L0.314826,120.499L0.284722,120.379L0.25607,120.258L0.228881,120.137L0.203164,120.015L0.178931,119.893L0.156189,119.77L0.13495,119.647L0.115222,119.523L0.0970169,119.399L0.0803429,119.274L0.0652103,119.148L0.0516289,119.022L0.0396085,118.896L0.0291591,118.769L0.0202902,118.642L0.0130119,118.515L0.00733394,118.387L0.00326607,118.258L0.000818155,118.129L0,118L0,103.84L0.281011,103.839L0.561601,103.836L0.841763,103.832L1.12149,103.825L1.40079,103.817L1.67964,103.808L1.95804,103.796L2.23599,103.783L2.51348,103.768L2.79051,103.751L3.06706,103.733L3.34314,103.713L3.61875,103.691L3.89386,103.667L4.16849,103.642L4.44262,103.615L4.71625,103.586L4.98937,103.556L5.26198,103.524L5.53407,103.49L5.80564,103.455L6.07668,103.418L6.34719,103.379L6.61716,103.339L6.88658,103.297L7.15546,103.253L7.42378,103.208L7.69154,103.161L7.95873,103.112L8.22536,103.062L8.49141,103.01L8.75687,102.957L9.02176,102.902L9.28604,102.845L9.54974,102.787L9.81282,102.727L10.0753,102.665L10.3372,102.602L10.5984,102.538L10.859,102.471L11.119,102.404L11.3784,102.334L11.6371,102.263L11.8952,102.191L12.1526,102.117L12.4094,102.041L12.6655,101.964L12.9209,101.886L13.1757,101.806L13.4298,101.724L13.6832,101.641L13.9359,101.556L14.1879,101.47L14.4393,101.383L14.6899,101.293L14.9398,101.203L15.189,101.111L15.4375,101.017L15.6853,100.922L15.9323,100.825L16.1786,100.727L16.4241,100.628L16.6689,100.527L16.913,100.425L17.1563,100.321L17.3988,100.216L17.6405,100.109L17.8815,100.001L18.1217,99.8915L18.3612,99.7806L18.5998,99.6683L18.8376,99.5546L19.0747,99.4394L19.3109,99.3229L19.5463,99.2051L19.7809,99.0858L20.0147,98.9651L20.2477,98.8431L20.4798,98.7197L20.7111,98.595L20.9416,98.4689L21.1712,98.3415L21.3999,98.2127L21.6278,98.0826L21.8548,97.9511L22.081,97.8183L22.3063,97.6842L22.5307,97.5488L22.7542,97.412L22.9768,97.274L23.1985,97.1346L23.4194,96.994L23.6393,96.8521L23.8583,96.7089L24.0764,96.5644L24.2936,96.4186L24.5098,96.2715L24.7251,96.1232L24.9395,95.9737L25.1529,95.8229L25.3654,95.6708L25.5769,95.5175L25.7875,95.363L25.9971,95.2072L26.2057,95.0502L26.4133,94.892L26.62,94.7325L26.8257,94.5719L27.0304,94.41L27.2341,94.247L27.4368,94.0827L27.6385,93.9173L27.8391,93.7507L28.0388,93.5829L28.2374,93.4139L28.435,93.2438L28.6316,93.0725L28.8271,92.9L29.0216,92.7264L29.215,92.5516L29.4074,92.3758L29.5987,92.1987L29.7889,92.0206L29.9781,91.8413L30.1662,91.6609L30.3532,91.4793L30.5391,91.2967L30.724,91.113L30.9077,90.9281L31.0903,90.7422L31.2719,90.5552L31.4523,90.3671L31.6316,90.1779L31.8097,89.9877L31.9867,89.7964L32.1626,89.604L32.3374,89.4106L32.511,89.2161L32.6835,89.0206L32.8548,88.824L33.0249,88.6264L33.1939,88.4278L33.3617,88.2281L33.5283,88.0274L33.6937,87.8258L33.8579,87.6231L34.021,87.4194L34.1828,87.2147L34.3435,87.009L34.5029,86.8023L34.6611,86.5947L34.8181,86.3861L34.9739,86.1765L35.1284,85.9659L35.2817,85.7544L35.4338,85.5419L35.5846,85.3285L35.7342,85.1141L35.8825,84.8988L36.0295,84.6826L36.1753,84.4654L36.3198,84.2473L36.463,84.0283L36.6049,83.8084L36.7455,83.5875L36.8849,83.3658L37.0229,83.1432L37.1597,82.9197L37.2951,82.6953L37.4292,82.47L37.562,82.2439L37.6934,82.0168L37.8235,81.7889L37.9523,81.5602L38.0798,81.3306L38.2059,81.1002L38.3306,80.8689L38.454,80.6367L38.576,80.4038L38.6966,80.17L38.8159,79.9354L38.9338,79.7L39.0503,79.4637L39.1654,79.2267L39.2791,78.9889L39.3914,78.7502L39.5023,78.5108L39.6118,78.2706L39.7198,78.0296L39.8265,77.7879L39.9317,77.5454L40.0355,77.3021L40.1378,77.058L40.2387,76.8132L40.3381,76.5677L40.4361,76.3214L40.5327,76.0744L40.6277,75.8266L40.7213,75.5782L40.8134,75.329L40.9041,75.0791L40.9932,74.8284L41.0808,74.5771L41.167,74.3251L41.2516,74.0724L41.3348,73.819L41.4164,73.5649L41.4965,73.3101L41.5751,73.0547L41.6521,72.7986L41.7277,72.5419L41.8016,72.2844L41.8741,72.0264L41.9449,71.7677L42.0142,71.5083L42.082,71.2483L42.1482,70.9877L42.2128,70.7265L42.2758,70.4646L42.3373,70.2021L42.3972,69.9391L42.4554,69.6754L42.5121,69.4111L42.5672,69.1462L42.6206,68.8808L42.6724,68.6147L42.7227,68.3481L42.7713,68.0809L42.8182,67.8132L42.8635,67.5449L42.9072,67.276L42.9492,67.0066L42.9896,66.7366L43.0283,66.4661L43.0654,66.1951L43.1008,65.9235L43.1345,65.6515L43.1665,65.3789L43.1969,65.1057L43.2256,64.8321L43.2525,64.558L43.2778,64.2834L43.3013,64.0083L43.3232,63.7327L43.3433,63.4566L43.3617,63.1801L43.3784,62.9031L43.3933,62.6256L43.4065,62.3477L43.418,62.0693L43.4277,61.7904L43.4357,61.5112L43.4419,61.2314L43.4463,60.9513L43.449,60.6707L43.4499,60.3897L43.449,60.1087L43.4463,59.8281L43.4419,59.548L43.4357,59.2683L43.4277,58.989L43.418,58.7102L43.4065,58.4318L43.3933,58.1538L43.3784,57.8764L43.3617,57.5993L43.3433,57.3228L43.3232,57.0467L43.3013,56.7711L43.2778,56.496L43.2525,56.2214L43.2256,55.9473L43.1969,55.6737L43.1665,55.4006L43.1345,55.128L43.1008,54.8559L43.0654,54.5843L43.0283,54.3133L42.9896,54.0428L42.9492,53.7729L42.9072,53.5034L42.8635,53.2346L42.8182,52.9663L42.7713,52.6985L42.7227,52.4313L42.6724,52.1647L42.6206,51.8987L42.5672,51.6332L42.5121,51.3683L42.4554,51.1041L42.3972,50.8404L42.3373,50.5773L42.2758,50.3148L42.2128,50.053L42.1482,49.7917L42.082,49.5311L42.0142,49.2711L41.9449,49.0118L41.8741,48.7531L41.8016,48.495L41.7277,48.2376L41.6521,47.9808L41.5751,47.7247L41.4965,47.4693L41.4164,47.2145L41.3348,46.9604L41.2516,46.707L41.167,46.4543L41.0808,46.2023L40.9932,45.951L40.9041,45.7004L40.8134,45.4505L40.7213,45.2013L40.6277,44.9528L40.5327,44.705L40.4361,44.458L40.3381,44.2117L40.2387,43.9662L40.1378,43.7214L40.0355,43.4774L39.9317,43.2341L39.8265,42.9915L39.7198,42.7498L39.6118,42.5088L39.5023,42.2686L39.3914,42.0292L39.2791,41.7906L39.1654,41.5527L39.0503,41.3157L38.9338,41.0795L38.8159,40.844L38.6966,40.6094L38.576,40.3756L38.454,40.1427L38.3306,39.9106L38.2059,39.6793L38.0798,39.4488L37.9523,39.2192L37.8235,38.9905L37.6934,38.7626L37.562,38.5356L37.4292,38.3094L37.2951,38.0841L37.1597,37.8597L37.0229,37.6362L36.8849,37.4136L36.7455,37.1919L36.6049,36.9711L36.463,36.7511L36.3198,36.5321L36.1753,36.314L36.0295,36.0969L35.8825,35.8806L35.7342,35.6653L35.5846,35.451L35.4338,35.2375L35.2817,35.0251L35.1284,34.8135L34.9739,34.603L34.8181,34.3934L34.6611,34.1847L34.5029,33.9771L34.3435,33.7704L34.1828,33.5647L34.021,33.3601L33.8579,33.1564L33.6937,32.9537L33.5283,32.752L33.3617,32.5513L33.1939,32.3517L33.0249,32.153L32.8548,31.9554L32.6835,31.7589L32.511,31.5633L32.3374,31.3689L32.1626,31.1754L31.9867,30.9831L31.8097,30.7918L31.6316,30.6015L31.4523,30.4123L31.2719,30.2242L31.0903,30.0372L30.9077,29.8513L30.724,29.6665L30.5391,29.4827L30.3532,29.3001L30.1662,29.1186L29.9781,28.9382L29.7889,28.7589L29.5987,28.5807L29.4074,28.4037L29.215,28.2278L29.0216,28.053L28.8271,27.8794L28.6316,27.707L28.435,27.5357L28.2374,27.3655L28.0388,27.1965L27.8391,27.0288L27.6385,26.8621L27.4368,26.6967L27.2341,26.5325L27.0304,26.3694L26.8257,26.2075L26.62,26.0469L26.4133,25.8875L26.2057,25.7292L25.9971,25.5722L25.7875,25.4165L25.5769,25.2619L25.3654,25.1086L25.1529,24.9566L24.9395,24.8057L24.7251,24.6562L24.5098,24.5079L24.2936,24.3608L24.0764,24.2151L23.8583,24.0706L23.6393,23.9274L23.4194,23.7854L23.1985,23.6448L22.9768,23.5054L22.7542,23.3674L22.5307,23.2307L22.3063,23.0952L22.081,22.9611L21.8548,22.8283L21.6278,22.6969L21.3999,22.5668L21.1712,22.438L20.9416,22.3105L20.7111,22.1844L20.4798,22.0597L20.2477,21.9363L20.0147,21.8143L19.7809,21.6936L19.5463,21.5744L19.3109,21.4565L19.0747,21.34L18.8376,21.2249L18.5998,21.1112L18.3612,20.9988L18.1217,20.8879L17.8815,20.7785L17.6405,20.6704L17.3988,20.5637L17.1563,20.4585L16.913,20.3547L16.6689,20.2524L16.4241,20.1515L16.1786,20.052L15.9323,19.954L15.6853,19.8575L15.4375,19.7624L15.189,19.6688L14.9398,19.5767L14.6899,19.4861L14.4393,19.3969L14.1879,19.3093L13.9359,19.2231L13.6832,19.1385L13.4298,19.0553L13.1757,18.9737L12.9209,18.8936L12.6655,18.815L12.4094,18.7379L12.1526,18.6624L11.8952,18.5884L11.6371,18.516L11.3784,18.4451L11.119,18.3758L10.859,18.308L10.5984,18.2418L10.3372,18.1772L10.0753,18.1142L9.81282,18.0527L9.54974,17.9928L9.28604,17.9346L9.02176,17.8779L8.75687,17.8228L8.49141,17.7694L8.22536,17.7175L7.95873,17.6673L7.69154,17.6187L7.42378,17.5717L7.15546,17.5264L6.88658,17.4827L6.61716,17.4407L6.34719,17.4003L6.07668,17.3615L5.80564,17.3245L5.53407,17.2891L5.26198,17.2554L4.98937,17.2233L4.71625,17.193L4.44262,17.1643L4.16849,17.1373L3.89386,17.1121L3.61875,17.0885L3.34314,17.0666L3.06706,17.0465L2.79051,17.0281L2.51348,17.0114L2.23599,16.9964L1.95804,16.9832L1.67964,16.9718L1.40079,16.962L1.12149,16.9541L0.841763,16.9479L0.561601,16.9434L0.281011,16.9407L0,16.9398L0,10L0.000818155,9.87075L0.00326607,9.7419L0.00733394,9.61344L0.0130119,9.4854L0.0202902,9.35778L0.0291591,9.2306L0.0396085,9.10385L0.0516289,8.97756L0.0652103,8.85173L0.0803429,8.72637L0.0970169,8.60149L0.115222,8.4771L0.13495,8.35321L0.156189,8.22983L0.178931,8.10698L0.203164,7.98465L0.228881,7.86286L0.25607,7.74163L0.284722,7.62095L0.314826,7.50084L0.346375,7.38132L0.379356,7.26238L0.413761,7.14404L0.44958,7.02631L0.486803,6.90919L0.52542,6.79271L0.565421,6.67686L0.606797,6.56166L0.649538,6.44712L0.693633,6.33325L0.739074,6.22006L0.78585,6.10755L0.833951,5.99574L0.883367,5.88463L0.93409,5.77425L0.986109,5.66459L1.03941,5.55566L1.09399,5.44748L1.14984,5.34006L1.20695,5.23341L1.2653,5.12753L1.32489,5.02243L1.3857,4.91813L1.44773,4.81464L1.51097,4.71196L1.57541,4.6101L1.64104,4.50908L1.70784,4.4089L1.77582,4.30958L1.84495,4.21113L1.91523,4.11354L1.98665,4.01684L2.05919,3.92103L2.13286,3.82613L2.20764,3.73214L2.28351,3.63907L2.36048,3.54694L2.43853,3.45574L2.51764,3.3655L2.59782,3.27623L2.67905,3.18792L2.76131,3.1006L2.84461,3.01426L2.92893,2.92893L3.01426,2.84461L3.1006,2.76131L3.18792,2.67905L3.27623,2.59782L3.3655,2.51764L3.45574,2.43853L3.54694,2.36048L3.63907,2.28351L3.73214,2.20764L3.82613,2.13286L3.92103,2.05919L4.01684,1.98665L4.11354,1.91523L4.21113,1.84495L4.30958,1.77582L4.4089,1.70784L4.50908,1.64104L4.6101,1.57541L4.71196,1.51097L4.81464,1.44773L4.91813,1.3857L5.02243,1.32489L5.12753,1.2653L5.23341,1.20695L5.34006,1.14984L5.44748,1.09399L5.55566,1.03941L5.66459,0.986109L5.77425,0.93409L5.88463,0.883367L5.99574,0.833951L6.10755,0.78585L6.22006,0.739074L6.33325,0.693633L6.44712,0.649538L6.56166,0.606797L6.67686,0.565421L6.79271,0.52542L6.90919,0.486803L7.02631,0.44958L7.14404,0.413761L7.26238,0.379356L7.38132,0.346375L7.50084,0.314826L7.62095,0.284722L7.74163,0.25607L7.86286,0.228881L7.98465,0.203164L8.10698,0.178931L8.22983,0.156189L8.35321,0.13495L8.4771,0.115222L8.60149,0.0970169L8.72637,0.0803429L8.85173,0.0652103L8.97756,0.0516289L9.10385,0.0396085L9.2306,0.0291591L9.35778,0.0202902L9.4854,0.0130119L9.61344,0.00733394L9.7419,0.00326607L9.87075,0.000818155L10,0L246.052,0L246.182,0.000818155L246.31,0.00326607L246.439,0.00733394L246.567,0.0130119L246.695,0.0202902L246.822,0.0291591L246.949,0.0396085L247.075,0.0516289L247.201,0.0652103L247.326,0.0803429L247.451,0.0970169L247.575,0.115222L247.699,0.13495L247.823,0.156189L247.945,0.178931L248.068,0.203164L248.19,0.228881L248.311,0.25607L248.431,0.284722L248.552,0.314826L248.671,0.346375L248.79,0.379356L248.908,0.413761L249.026,0.44958L249.143,0.486803L249.26,0.52542L249.376,0.565421L249.491,0.606797L249.605,0.649538L249.719,0.693633L249.832,0.739074L249.945,0.78585L250.057,0.833951L250.168,0.883367L250.278,0.93409L250.388,0.986109L250.497,1.03941L250.605,1.09399L250.712,1.14984L250.819,1.20695L250.925,1.2653L251.03,1.32489L251.134,1.3857L251.238,1.44773L251.34,1.51097L251.442,1.57541L251.543,1.64104L251.643,1.70784L251.743,1.77582L251.841,1.84495L251.939,1.91523L252.036,1.98665L252.131,2.05919L252.226,2.13286L252.32,2.20764L252.413,2.28351L252.505,2.36048L252.597,2.43853L252.687,2.51764L252.776,2.59782L252.864,2.67905L252.952,2.76131L253.038,2.84461L253.123,2.92893L253.208,3.01426L253.291,3.1006L253.373,3.18792L253.455,3.27623L253.535,3.3655L253.614,3.45574L253.692,3.54694L253.769,3.63907L253.845,3.73214L253.92,3.82613L253.993,3.92103L254.066,4.01684L254.137,4.11354L254.207,4.21113L254.277,4.30958L254.345,4.4089L254.411,4.50908L254.477,4.6101L254.541,4.71196L254.605,4.81464L254.667,4.91813L254.728,5.02243L254.787,5.12753L254.845,5.23341L254.903,5.34006L254.958,5.44748L255.013,5.55566L255.066,5.66459L255.118,5.77425L255.169,5.88463L255.218,5.99574L255.267,6.10755L255.313,6.22006L255.359,6.33325L255.403,6.44712L255.446,6.56166L255.487,6.67686L255.527,6.79271L255.566,6.90919L255.603,7.02631L255.639,7.14404L255.673,7.26238L255.706,7.38132L255.738,7.50084L255.768,7.62095L255.796,7.74163L255.824,7.86286L255.849,7.98465L255.873,8.10698L255.896,8.22983L255.917,8.35321L255.937,8.4771L255.955,8.60149L255.972,8.72637L255.987,8.85173L256.001,8.97756L256.013,9.10385L256.023,9.2306L256.032,9.35778L256.039,9.4854L256.045,9.61344L256.049,9.7419L256.052,9.87075L256.052,10L256.052,118L256.052,118.129L256.049,118.258L256.045,118.387L256.039,118.515L256.032,118.642L256.023,118.769L256.013,118.896L256.001,119.022L255.987,119.148L255.972,119.274L255.955,119.399L255.937,119.523L255.917,119.647L255.896,119.77L255.873,119.893L255.849,120.015L255.824,120.137L255.796,120.258L255.768,120.379L255.738,120.499L255.706,120.619L255.673,120.738L255.639,120.856L255.603,120.974L255.566,121.091L255.527,121.207L255.487,121.323L255.446,121.438L255.403,121.553L255.359,121.667L255.313,121.78L255.267,121.892L255.218,122.004L255.169,122.115L255.118,122.226L255.066,122.335L255.013,122.444L254.958,122.553L254.903,122.66L254.845,122.767L254.787,122.872L254.728,122.978L254.667,123.082L254.605,123.185L254.541,123.288L254.477,123.39L254.411,123.491L254.345,123.591L254.277,123.69L254.207,123.789L254.137,123.886L254.066,123.983L253.993,124.079L253.92,124.174L253.845,124.268L253.769,124.361L253.692,124.453L253.614,124.544L253.535,124.634L253.455,124.724L253.373,124.812L253.291,124.899L253.208,124.986L253.123,125.071L253.038,125.155L252.952,125.239L252.864,125.321L252.776,125.402L252.687,125.482L252.597,125.561L252.505,125.64L252.413,125.716L252.32,125.792L252.226,125.867L252.131,125.941L252.036,126.013L251.939,126.085L251.841,126.155L251.743,126.224L251.643,126.292L251.543,126.359L251.442,126.425L251.34,126.489L251.238,126.552L251.134,126.614L251.03,126.675L250.925,126.735L250.819,126.793L250.712,126.85L250.605,126.906L250.497,126.961L250.388,127.014L250.278,127.066L250.168,127.117L250.057,127.166L249.945,127.214L249.832,127.261L249.719,127.306L249.605,127.35L249.491,127.393L249.376,127.435L249.26,127.475L249.143,127.513L249.026,127.55L248.908,127.586L248.79,127.621L248.671,127.654L248.552,127.685L248.431,127.715L248.311,127.744L248.19,127.771L248.068,127.797L247.945,127.821L247.823,127.844L247.699,127.865L247.575,127.885L247.451,127.903L247.326,127.92L247.201,127.935L247.075,127.948L246.949,127.96L246.822,127.971L246.695,127.98L246.567,127.987L246.439,127.993L246.31,127.997L246.182,127.999L246.052,128L10,128ZM10.0032,127L246.049,127L246.169,126.999L246.285,126.997L246.401,126.993L246.516,126.988L246.631,126.982L246.746,126.974L246.86,126.964L246.974,126.953L247.087,126.941L247.2,126.928L247.312,126.913L247.424,126.896L247.536,126.878L247.647,126.859L247.757,126.839L247.867,126.817L247.977,126.794L248.086,126.77L248.194,126.744L248.302,126.717L248.41,126.688L248.517,126.659L248.623,126.628L248.729,126.596L248.834,126.562L248.939,126.527L249.043,126.491L249.147,126.454L249.25,126.416L249.352,126.376L249.454,126.335L249.555,126.293L249.656,126.25L249.756,126.205L249.855,126.16L249.954,126.113L250.052,126.065L250.149,126.016L250.246,125.966L250.342,125.914L250.437,125.862L250.531,125.808L250.625,125.753L250.719,125.698L250.811,125.641L250.903,125.583L250.994,125.524L251.084,125.464L251.173,125.402L251.262,125.34L251.35,125.277L251.437,125.213L251.523,125.147L251.608,125.081L251.693,125.014L251.777,124.945L251.86,124.876L251.942,124.806L252.023,124.734L252.104,124.662L252.183,124.589L252.262,124.515L252.339,124.44L252.416,124.364L252.492,124.287L252.567,124.209L252.641,124.131L252.715,124.051L252.787,123.971L252.858,123.889L252.928,123.807L252.998,123.724L253.066,123.641L253.133,123.556L253.2,123.471L253.265,123.384L253.329,123.297L253.393,123.209L253.455,123.121L253.516,123.031L253.576,122.941L253.635,122.85L253.693,122.758L253.75,122.666L253.806,122.573L253.861,122.479L253.914,122.384L253.967,122.289L254.018,122.193L254.068,122.097L254.117,121.999L254.165,121.901L254.212,121.803L254.258,121.703L254.302,121.603L254.346,121.503L254.388,121.402L254.428,121.3L254.468,121.198L254.507,121.095L254.544,120.991L254.58,120.887L254.614,120.782L254.648,120.677L254.68,120.571L254.711,120.464L254.741,120.357L254.769,120.25L254.796,120.142L254.822,120.033L254.846,119.924L254.87,119.815L254.891,119.705L254.912,119.594L254.931,119.483L254.949,119.372L254.965,119.26L254.98,119.148L254.994,119.035L255.006,118.921L255.017,118.808L255.026,118.694L255.034,118.579L255.041,118.464L255.046,118.349L255.049,118.233L255.052,118.117L255.052,117.997L255.052,10.0031L255.052,9.88343L255.049,9.76723L255.046,9.6514L255.041,9.53605L255.034,9.421L255.026,9.30644L255.017,9.19237L255.006,9.07863L254.994,8.9653L254.98,8.85249L254.965,8.74001L254.949,8.62817L254.931,8.51667L254.912,8.40563L254.891,8.29524L254.87,8.18513L254.846,8.07559L254.822,7.96653L254.796,7.85797L254.769,7.74999L254.741,7.64252L254.711,7.53566L254.68,7.42923L254.648,7.32323L254.614,7.21796L254.58,7.11333L254.544,7.00907L254.507,6.90546L254.468,6.80251L254.428,6.70005L254.388,6.59827L254.346,6.49718L254.302,6.3966L254.258,6.29655L254.212,6.1973L254.165,6.09867L254.117,6.00069L254.068,5.90336L254.018,5.80668L253.967,5.71083L253.914,5.6155L253.861,5.52086L253.806,5.42707L253.75,5.3339L253.693,5.24152L253.635,5.14987L253.576,5.05887L253.516,4.96869L253.455,4.87932L253.393,4.79072L253.329,4.70281L253.265,4.61576L253.2,4.52949L253.133,4.44402L253.066,4.35941L252.998,4.27556L252.928,4.1926L252.858,4.11053L252.787,4.02925L252.715,3.94882L252.641,3.86926L252.567,3.79062L252.492,3.71292L252.416,3.63606L252.339,3.56009L252.262,3.48509L252.183,3.41101L252.104,3.33785L252.023,3.26564L251.942,3.19437L251.86,3.1241L251.777,3.0548L251.693,2.98648L251.608,2.91917L251.523,2.85283L251.437,2.78748L251.35,2.72319L251.262,2.65988L251.173,2.59767L251.084,2.5365L250.993,2.47635L250.903,2.41728L250.811,2.35926L250.718,2.30236L250.625,2.24655L250.531,2.19178L250.437,2.13817L250.342,2.08569L250.246,2.03431L250.149,1.98405L250.052,1.93494L249.954,1.88699L249.855,1.84022L249.756,1.79458L249.656,1.75013L249.555,1.70687L249.454,1.66481L249.352,1.62394L249.25,1.58429L249.147,1.54585L249.043,1.50864L248.939,1.47268L248.834,1.43795L248.729,1.40448L248.623,1.37227L248.517,1.34133L248.41,1.31168L248.302,1.2833L248.194,1.25623L248.086,1.23047L247.977,1.20601L247.867,1.18288L247.757,1.16109L247.647,1.14063L247.536,1.12152L247.424,1.10377L247.312,1.08739L247.2,1.07238L247.087,1.05876L246.974,1.04653L246.86,1.03571L246.746,1.0263L246.631,1.01831L246.516,1.01175L246.401,1.00663L246.285,1.00297L246.169,1.00076L246.049,1L10.0032,1L9.88341,1.00076L9.76722,1.00297L9.65142,1.00663L9.53602,1.01175L9.42104,1.01831L9.30646,1.0263L9.19231,1.03571L9.07859,1.04653L8.96531,1.05876L8.85247,1.07238L8.74007,1.08739L8.62814,1.10377L8.51667,1.12152L8.40568,1.14063L8.29516,1.16109L8.18513,1.18288L8.07559,1.20601L7.96655,1.23047L7.85803,1.25623L7.75002,1.28331L7.64253,1.31167L7.53558,1.34133L7.42917,1.37227L7.32331,1.40448L7.218,1.43795L7.11325,1.47267L7.00908,1.50864L6.90549,1.54585L6.80249,1.58428L6.70009,1.62394L6.59829,1.6648L6.4971,1.70687L6.39654,1.75013L6.29661,1.79458L6.19732,1.84021L6.09868,1.887L6.00069,1.93495L5.90337,1.98405L5.80672,2.0343L5.71076,2.08568L5.61549,2.13818L5.52092,2.1918L5.42706,2.24653L5.33392,2.30236L5.2415,2.35928L5.14983,2.41728L5.0589,2.47635L4.96872,2.53648L4.87931,2.59767L4.79067,2.65991L4.70281,2.72318L4.61575,2.78749L4.52949,2.85281L4.44403,2.91914L4.3594,2.98647L4.27559,3.0548L4.19262,3.12411L4.1105,3.19439L4.02923,3.26564L3.94883,3.33785L3.8693,3.411L3.79066,3.48509L3.7129,3.56011L3.63605,3.63605L3.56011,3.7129L3.48509,3.79066L3.411,3.8693L3.33785,3.94883L3.26564,4.02923L3.19439,4.1105L3.12411,4.19262L3.0548,4.27559L2.98647,4.3594L2.91914,4.44403L2.85281,4.52949L2.78749,4.61575L2.72318,4.70281L2.65991,4.79067L2.59767,4.87931L2.53648,4.96872L2.47635,5.0589L2.41728,5.14983L2.35928,5.2415L2.30236,5.33392L2.24653,5.42706L2.1918,5.52092L2.13818,5.61549L2.08568,5.71076L2.0343,5.80672L1.98405,5.90337L1.93495,6.00069L1.887,6.09868L1.84021,6.19732L1.79458,6.29661L1.75013,6.39654L1.70687,6.4971L1.6648,6.59829L1.62394,6.70009L1.58428,6.80249L1.54585,6.90549L1.50864,7.00908L1.47267,7.11325L1.43795,7.218L1.40448,7.32331L1.37227,7.42917L1.34133,7.53558L1.31167,7.64253L1.28331,7.75002L1.25623,7.85803L1.23047,7.96655L1.20601,8.07559L1.18288,8.18513L1.16109,8.29516L1.14063,8.40568L1.12152,8.51667L1.10377,8.62814L1.08739,8.74007L1.07238,8.85247L1.05876,8.96531L1.04653,9.07859L1.03571,9.19231L1.0263,9.30646L1.01831,9.42104L1.01175,9.53602L1.00663,9.65142L1.00297,9.76722L1.00076,9.88341L1,10.0032L1,15.9511L1.14685,15.9544L1.43247,15.9625L1.71765,15.9725L2.00237,15.9842L2.28664,15.9977L2.57045,16.013L2.85379,16.0301L3.13665,16.0489L3.41904,16.0695L3.70094,16.0919L3.98235,16.116L4.26326,16.1418L4.54367,16.1694L4.82358,16.1987L5.10297,16.2298L5.38184,16.2626L5.66019,16.2971L5.93801,16.3333L6.21529,16.3712L6.49203,16.4108L6.76822,16.4521L7.04386,16.4951L7.31894,16.5398L7.59345,16.5862L7.8674,16.6343L8.14077,16.684L8.41356,16.7354L8.68576,16.7884L8.95737,16.8431L9.22838,16.8995L9.49878,16.9575L9.76858,17.0171L10.0378,17.0783L10.3063,17.1412L10.5743,17.2057L10.8416,17.2718L11.1082,17.3396L11.3743,17.4089L11.6396,17.4798L11.9043,17.5524L12.1684,17.6265L12.4318,17.7022L12.6945,17.7794L12.9566,17.8583L13.2179,17.9387L13.4786,18.0207L13.7386,18.1042L13.9979,18.1893L14.2565,18.2759L14.5143,18.364L14.7715,18.4537L15.0279,18.5449L15.2837,18.6377L15.5386,18.7319L15.7929,18.8277L16.0464,18.925L16.2991,19.0237L16.5511,19.124L16.8023,19.2258L17.0528,19.329L17.3025,19.4337L17.5514,19.5399L17.7996,19.6476L18.0469,19.7567L18.2935,19.8673L18.5393,19.9793L18.7842,20.0927L19.0284,20.2077L19.2717,20.324L19.5142,20.4418L19.7559,20.561L19.9968,20.6816L20.2368,20.8036L20.476,20.927L20.7144,21.0519L20.9518,21.1781L21.1885,21.3057L21.4242,21.4347L21.6591,21.5651L21.8931,21.6969L22.1263,21.83L22.3585,21.9645L22.5899,22.1003L22.8204,22.2375L23.0499,22.376L23.2786,22.5159L23.5063,22.6572L23.7332,22.7997L23.9591,22.9436L24.1841,23.0888L24.4081,23.2353L24.6312,23.3831L24.8534,23.5322L25.0746,23.6826L25.2948,23.8343L25.5141,23.9873L25.7324,24.1416L25.9498,24.2972L26.1662,24.454L26.3816,24.6121L26.596,24.7714L26.8094,24.932L27.0218,25.0939L27.2332,25.257L27.4436,25.4213L27.653,25.5868L27.8613,25.7536L28.0687,25.9216L28.275,26.0909L28.4802,26.2613L28.6845,26.4329L28.8876,26.6058L29.0898,26.7798L29.2908,26.955L29.4908,27.1314L29.6897,27.309L29.8876,27.4878L30.0844,27.6677L30.2801,27.8488L30.4747,28.031L30.6682,28.2144L30.8606,28.3989L31.0518,28.5846L31.242,28.7714L31.4311,28.9594L31.619,29.1484L31.8058,29.3386L31.9915,29.5299L32.176,29.7223L32.3594,29.9158L32.5417,30.1104L32.7227,30.3061L32.9027,30.5028L33.0814,30.7007L33.259,30.8996L33.4354,31.0996L33.6106,31.3007L33.7846,31.5028L33.9575,31.706L34.1291,31.9102L34.2995,32.1155L34.4688,32.3218L34.6368,32.5291L34.8036,32.7375L34.9691,32.9469L35.1334,33.1573L35.2965,33.3687L35.4584,33.5811L35.619,33.7945L35.7783,34.0089L35.9364,34.2243L36.0932,34.4406L36.2488,34.658L36.403,34.8763L36.556,35.0956L36.7077,35.3159L36.8581,35.5371L37.0073,35.7592L37.1551,35.9823L37.3016,36.2064L37.4468,36.4313L37.5906,36.6572L37.7332,36.8841L37.8744,37.1118L38.0143,37.3405L38.1528,37.57L38.29,37.8005L38.4258,38.0319L38.5603,38.2641L38.6934,38.4973L38.8252,38.7313L38.9556,38.9662L39.0846,39.2019L39.2122,39.4386L39.3384,39.676L39.4632,39.9144L39.5867,40.1536L39.7087,40.3936L39.8293,40.6344L39.9485,40.8761L40.0662,41.1186L40.1826,41.362L40.2975,41.6061L40.411,41.8511L40.523,42.0968L40.6335,42.3434L40.7426,42.5908L40.8503,42.8389L40.9565,43.0878L41.0612,43.3375L41.1644,43.588L41.2662,43.8392L41.3664,44.0912L41.4652,44.3439L41.5625,44.5974L41.6582,44.8517L41.7525,45.1066L41.8452,45.3623L41.9364,45.6188L42.0261,45.8759L42.1142,46.1338L42.2009,46.3924L42.2859,46.6516L42.3694,46.9116L42.4514,47.1723L42.5318,47.4336L42.6106,47.6957L42.6879,47.9584L42.7636,48.2218L42.8377,48.4858L42.9102,48.7506L42.9811,49.0159L43.0505,49.2819L43.1182,49.5486L43.1843,49.8159L43.2488,50.0838L43.3117,50.3524L43.3729,50.6216L43.4325,50.8913L43.4905,51.1617L43.5469,51.4327L43.6015,51.7043L43.6546,51.9765L43.706,52.2493L43.7557,52.5227L43.8037,52.7966L43.8501,53.0711L43.8948,53.3462L43.9378,53.6218L43.9791,53.898L44.0187,54.1747L44.0566,54.452L44.0928,54.7298L44.1273,55.0081L44.1601,55.287L44.1911,55.5664L44.2204,55.8463L44.248,56.1267L44.2739,56.4076L44.298,56.689L44.3203,56.9709L44.3409,57.2532L44.3597,57.5361L44.3768,57.8194L44.3921,58.1032L44.4056,58.3875L44.4173,58.6722L44.4272,58.9573L44.4354,59.2429L44.4417,59.529L44.4462,59.8155L44.449,60.1024L44.4499,60.3897L44.449,60.677L44.4462,60.964L44.4417,61.2504L44.4354,61.5365L44.4272,61.8221L44.4173,62.1073L44.4056,62.392L44.3921,62.6762L44.3768,62.96L44.3597,63.2433L44.3409,63.5262L44.3203,63.8086L44.298,64.0905L44.2739,64.3719L44.248,64.6528L44.2204,64.9332L44.1911,65.2131L44.1601,65.4924L44.1273,65.7713L44.0928,66.0496L44.0566,66.3274L44.0187,66.6047L43.9791,66.8814L43.9378,67.1576L43.8948,67.4333L43.8501,67.7083L43.8037,67.9828L43.7557,68.2568L43.706,68.5301L43.6546,68.8029L43.6015,69.0751L43.5469,69.3467L43.4905,69.6177L43.4325,69.8881L43.3729,70.1579L43.3117,70.4271L43.2488,70.6956L43.1843,70.9635L43.1182,71.2308L43.0505,71.4975L42.9811,71.7635L42.9102,72.0289L42.8377,72.2936L42.7636,72.5576L42.6879,72.821L42.6106,73.0837L42.5318,73.3458L42.4514,73.6071L42.3694,73.8678L42.2859,74.1278L42.2009,74.3871L42.1142,74.6457L42.0261,74.9035L41.9364,75.1607L41.8452,75.4171L41.7525,75.6728L41.6582,75.9278L41.5625,76.182L41.4652,76.4355L41.3664,76.6882L41.2662,76.9402L41.1644,77.1915L41.0612,77.4419L40.9565,77.6916L40.8503,77.9405L40.7426,78.1887L40.6335,78.436L40.523,78.6826L40.411,78.9283L40.2975,79.1733L40.1826,79.4175L40.0662,79.6608L39.9485,79.9033L39.8293,80.145L39.7087,80.3859L39.5867,80.6259L39.4632,80.8651L39.3384,81.1034L39.2122,81.3409L39.0846,81.5775L38.9556,81.8133L38.8252,82.0482L38.6934,82.2822L38.5603,82.5153L38.4258,82.7476L38.29,82.9789L38.1528,83.2094L38.0143,83.439L37.8744,83.6676L37.7332,83.8954L37.5906,84.1222L37.4468,84.3481L37.3016,84.5731L37.1551,84.7971L37.0073,85.0202L36.8581,85.2424L36.7077,85.4636L36.556,85.6838L36.403,85.9031L36.2488,86.1214L36.0932,86.3388L35.9364,86.5552L35.7783,86.7706L35.619,86.9849L35.4584,87.1984L35.2965,87.4108L35.1334,87.6222L34.9691,87.8326L34.8036,88.042L34.6368,88.2503L34.4688,88.4577L34.2995,88.664L34.1291,88.8692L33.9575,89.0734L33.7846,89.2766L33.6106,89.4787L33.4354,89.6798L33.259,89.8798L33.0814,90.0787L32.9027,90.2766L32.7227,90.4734L32.5417,90.669L32.3594,90.8636L32.176,91.0571L31.9915,91.2495L31.8058,91.4408L31.619,91.631L31.4311,91.8201L31.242,92.008L31.0518,92.1948L30.8606,92.3805L30.6682,92.565L30.4747,92.7484L30.2801,92.9307L30.0844,93.1117L29.8876,93.2917L29.6897,93.4704L29.4908,93.648L29.2908,93.8244L29.0898,93.9996L28.8876,94.1737L28.6845,94.3465L28.4802,94.5181L28.275,94.6886L28.0687,94.8578L27.8613,95.0258L27.653,95.1926L27.4436,95.3581L27.2332,95.5225L27.0218,95.6856L26.8094,95.8474L26.596,96.008L26.3816,96.1674L26.1662,96.3254L25.9498,96.4823L25.7325,96.6378L25.5141,96.7921L25.2948,96.9451L25.0746,97.0968L24.8534,97.2472L24.6312,97.3963L24.4081,97.5441L24.1841,97.6907L23.9591,97.8359L23.7332,97.9797L23.5064,98.1223L23.2786,98.2635L23.0499,98.4034L22.8204,98.5419L22.5899,98.6791L22.3585,98.815L22.1263,98.9495L21.8932,99.0826L21.6591,99.2143L21.4242,99.3447L21.1885,99.4737L20.9518,99.6013L20.7144,99.7276L20.476,99.8524L20.2368,99.9758L19.9968,100.098L19.7559,100.218L19.5142,100.338L19.2717,100.455L19.0284,100.572L18.7842,100.687L18.5393,100.8L18.2935,100.912L18.0469,101.023L17.7996,101.132L17.5514,101.24L17.3025,101.346L17.0528,101.45L16.8024,101.554L16.5511,101.655L16.2991,101.756L16.0464,101.854L15.7929,101.952L15.5386,102.047L15.2837,102.142L15.0279,102.234L14.7715,102.326L14.5144,102.415L14.2565,102.504L13.9979,102.59L13.7386,102.675L13.4786,102.759L13.2179,102.841L12.9566,102.921L12.6945,103L12.4318,103.077L12.1684,103.153L11.9043,103.227L11.6396,103.3L11.3743,103.371L11.1082,103.44L10.8416,103.508L10.5743,103.574L10.3063,103.638L10.0378,103.701L9.76859,103.762L9.49879,103.822L9.22839,103.88L8.95737,103.936L8.68574,103.991L8.41356,104.044L8.14078,104.095L7.86738,104.145L7.59345,104.193L7.31895,104.24L7.04386,104.284L6.76821,104.327L6.49202,104.369L6.21529,104.408L5.93801,104.446L5.66019,104.482L5.38183,104.517L5.10298,104.55L4.8236,104.581L4.54368,104.61L4.26325,104.638L3.98236,104.663L3.70095,104.688L3.41904,104.71L3.13665,104.731L2.85378,104.749L2.57045,104.766L2.28665,104.782L2.00236,104.795L1.71764,104.807L1.43249,104.817L1.14684,104.825L1,104.828L1,117.997L1.00076,118.117L1.00297,118.233L1.00663,118.349L1.01175,118.464L1.01831,118.579L1.0263,118.694L1.03571,118.808L1.04653,118.921L1.05876,119.035L1.07238,119.148L1.08739,119.26L1.10377,119.372L1.12152,119.483L1.14063,119.594L1.16108,119.705L1.18288,119.815L1.20601,119.924L1.23047,120.033L1.25623,120.142L1.28331,120.25L1.31167,120.357L1.34133,120.464L1.37227,120.571L1.40448,120.677L1.43795,120.782L1.47267,120.887L1.50864,120.991L1.54585,121.095L1.58429,121.198L1.62394,121.3L1.66481,121.402L1.70687,121.503L1.75013,121.603L1.79459,121.703L1.8402,121.803L1.88699,121.901L1.93495,121.999L1.98405,122.097L2.0343,122.193L2.08568,122.289L2.13818,122.385L2.19181,122.479L2.24654,122.573L2.30236,122.666L2.35927,122.758L2.41727,122.85L2.47636,122.941L2.53648,123.031L2.59767,123.121L2.65991,123.209L2.72317,123.297L2.78748,123.384L2.85281,123.471L2.91913,123.556L2.98648,123.641L3.0548,123.724L3.1241,123.807L3.19439,123.889L3.26566,123.971L3.33785,124.051L3.41099,124.131L3.48509,124.209L3.56012,124.287L3.63603,124.364L3.71289,124.44L3.79068,124.515L3.86931,124.589L3.94882,124.662L4.02922,124.734L4.11048,124.806L4.19263,124.876L4.27559,124.945L4.35938,125.014L4.44405,125.081L4.52949,125.147L4.61576,125.213L4.70281,125.277L4.79065,125.34L4.87932,125.402L4.96872,125.464L5.05887,125.524L5.14983,125.583L5.24152,125.641L5.3339,125.698L5.42703,125.753L5.52094,125.808L5.6155,125.862L5.71075,125.914L5.80672,125.966L5.90336,126.016L6.00069,126.065L6.09867,126.113L6.19734,126.16L6.29664,126.205L6.39651,126.25L6.49709,126.293L6.59832,126.335L6.7001,126.376L6.80247,126.416L6.9055,126.454L7.00911,126.491L7.11324,126.527L7.21796,126.562L7.32332,126.596L7.42918,126.628L7.53557,126.659L7.64252,126.688L7.75004,126.717L7.85806,126.744L7.96653,126.77L8.07559,126.794L8.18513,126.817L8.29515,126.839L8.40568,126.859L8.51667,126.878L8.62812,126.896L8.74006,126.913L8.85249,126.928L8.96534,126.941L9.07858,126.953L9.19228,126.964L9.30648,126.974L9.42105,126.982L9.53601,126.988L9.6514,126.993L9.76723,126.997L9.88343,126.999L10.0032,127Z" style="fill:rgb(0,177,242);"/>
            </g>
        </g>
    </g>
</svg>
