<?xml version="1.0" standalone="no"?>
<!DOCTYPE svg PUBLIC "-//W3C//DTD SVG 1.1//EN" "http://www.w3.org/Graphics/SVG/1.1/DTD/svg11.dtd">
<svg width="256px" height="128px" version="1.1" xmlns="http://www.w3.org/2000/svg" xmlns:xlink="http://www.w3.org/1999/xlink" xml:space="preserve" style="fill-rule:evenodd;clip-rule:evenodd;stroke-linejoin:round;stroke-miterlimit:1.41421;">
    <g>
        <g id="Layer1">
            <g>
                <path d="M0,16.9398L0,0L256.052,0L256.052,112.981L241.033,128L0,128L0,103.84C23.9974,103.839 43.4499,84.386 43.4499,60.3897C43.4499,36.3935 23.9974,16.9406 0,16.9398Z" style="fill:rgb(3,20,25);fill-opacity:0.717647;"/>
                <path d="M0,128L0,103.84L0.281011,103.839L0.561601,103.836L0.841763,103.832L1.12149,103.825L1.40079,103.817L1.67964,103.808L1.95804,103.796L2.23599,103.783L2.51348,103.768L2.79051,103.751L3.06706,103.733L3.34314,103.713L3.61875,103.691L3.89386,103.667L4.16849,103.642L4.44262,103.615L4.71625,103.586L4.98937,103.556L5.26198,103.524L5.53407,103.49L5.80564,103.455L6.07668,103.418L6.34719,103.379L6.61716,103.339L6.88658,103.297L7.15546,103.253L7.42378,103.208L7.69154,103.161L7.95873,103.112L8.22536,103.062L8.49141,103.01L8.75687,102.957L9.02176,102.902L9.28604,102.845L9.54974,102.787L9.81282,102.727L10.0753,102.665L10.3372,102.602L10.5984,102.538L10.859,102.471L11.119,102.404L11.3784,102.334L11.6371,102.263L11.8952,102.191L12.1526,102.117L12.4094,102.041L12.6655,101.964L12.9209,101.886L13.1757,101.806L13.4298,101.724L13.6832,101.641L13.9359,101.556L14.1879,101.47L14.4393,101.383L14.6899,101.293L14.9398,101.203L15.189,101.111L15.4375,101.017L15.6853,100.922L15.9323,100.825L16.1786,100.727L16.4241,100.628L16.6689,100.527L16.913,100.425L17.1563,100.321L17.3988,100.216L17.6405,100.109L17.8815,100.001L18.1217,99.8915L18.3612,99.7806L18.5998,99.6683L18.8376,99.5546L19.0747,99.4394L19.3109,99.3229L19.5463,99.2051L19.7809,99.0858L20.0147,98.9651L20.2477,98.8431L20.4798,98.7197L20.7111,98.595L20.9416,98.4689L21.1712,98.3415L21.3999,98.2127L21.6278,98.0826L21.8548,97.9511L22.081,97.8183L22.3063,97.6842L22.5307,97.5488L22.7542,97.412L22.9768,97.274L23.1985,97.1346L23.4194,96.994L23.6393,96.8521L23.8583,96.7089L24.0764,96.5644L24.2936,96.4186L24.5098,96.2715L24.7251,96.1232L24.9395,95.9737L25.1529,95.8229L25.3654,95.6708L25.5769,95.5175L25.7875,95.363L25.9971,95.2072L26.2057,95.0502L26.4133,94.892L26.62,94.7325L26.8257,94.5719L27.0304,94.41L27.2341,94.247L27.4368,94.0827L27.6385,93.9173L27.8391,93.7507L28.0388,93.5829L28.2374,93.4139L28.435,93.2438L28.6316,93.0725L28.8271,92.9L29.0216,92.7264L29.215,92.5516L29.4074,92.3758L29.5987,92.1987L29.7889,92.0206L29.9781,91.8413L30.1662,91.6609L30.3532,91.4793L30.5391,91.2967L30.724,91.113L30.9077,90.9281L31.0903,90.7422L31.2719,90.5552L31.4523,90.3671L31.6316,90.1779L31.8097,89.9877L31.9867,89.7964L32.1626,89.604L32.3374,89.4106L32.511,89.2161L32.6835,89.0206L32.8548,88.824L33.0249,88.6264L33.1939,88.4278L33.3617,88.2281L33.5283,88.0274L33.6937,87.8258L33.8579,87.6231L34.021,87.4194L34.1828,87.2147L34.3435,87.009L34.5029,86.8023L34.6611,86.5947L34.8181,86.3861L34.9739,86.1765L35.1284,85.9659L35.2817,85.7544L35.4338,85.5419L35.5846,85.3285L35.7342,85.1141L35.8825,84.8988L36.0295,84.6826L36.1753,84.4654L36.3198,84.2473L36.463,84.0283L36.6049,83.8084L36.7455,83.5875L36.8849,83.3658L37.0229,83.1432L37.1597,82.9197L37.2951,82.6953L37.4292,82.47L37.562,82.2439L37.6934,82.0168L37.8235,81.7889L37.9523,81.5602L38.0798,81.3306L38.2059,81.1002L38.3306,80.8689L38.454,80.6367L38.576,80.4038L38.6966,80.17L38.8159,79.9354L38.9338,79.7L39.0503,79.4637L39.1654,79.2267L39.2791,78.9889L39.3914,78.7502L39.5023,78.5108L39.6118,78.2706L39.7198,78.0296L39.8265,77.7879L39.9317,77.5454L40.0355,77.3021L40.1378,77.058L40.2387,76.8132L40.3381,76.5677L40.4361,76.3214L40.5327,76.0744L40.6277,75.8266L40.7213,75.5782L40.8134,75.329L40.9041,75.0791L40.9932,74.8284L41.0808,74.5771L41.167,74.3251L41.2516,74.0724L41.3348,73.819L41.4164,73.5649L41.4965,73.3101L41.5751,73.0547L41.6521,72.7986L41.7277,72.5419L41.8016,72.2844L41.8741,72.0264L41.9449,71.7677L42.0142,71.5083L42.082,71.2483L42.1482,70.9877L42.2128,70.7265L42.2758,70.4646L42.3373,70.2021L42.3972,69.9391L42.4554,69.6754L42.5121,69.4111L42.5672,69.1462L42.6206,68.8808L42.6724,68.6147L42.7227,68.3481L42.7713,68.0809L42.8182,67.8132L42.8635,67.5449L42.9072,67.276L42.9492,67.0066L42.9896,66.7366L43.0283,66.4661L43.0654,66.1951L43.1008,65.9235L43.1345,65.6515L43.1665,65.3789L43.1969,65.1057L43.2256,64.8321L43.2525,64.558L43.2778,64.2834L43.3013,64.0083L43.3232,63.7327L43.3433,63.4566L43.3617,63.1801L43.3784,62.9031L43.3933,62.6256L43.4065,62.3477L43.418,62.0693L43.4277,61.7904L43.4357,61.5112L43.4419,61.2314L43.4463,60.9513L43.449,60.6707L43.4499,60.3897L43.449,60.1087L43.4463,59.8281L43.4419,59.548L43.4357,59.2683L43.4277,58.989L43.418,58.7102L43.4065,58.4318L43.3933,58.1538L43.3784,57.8764L43.3617,57.5993L43.3433,57.3228L43.3232,57.0467L43.3013,56.7711L43.2778,56.496L43.2525,56.2214L43.2256,55.9473L43.1969,55.6737L43.1665,55.4006L43.1345,55.128L43.1008,54.8559L43.0654,54.5843L43.0283,54.3133L42.9896,54.0428L42.9492,53.7729L42.9072,53.5034L42.8635,53.2346L42.8182,52.9663L42.7713,52.6985L42.7227,52.4313L42.6724,52.1647L42.6206,51.8987L42.5672,51.6332L42.5121,51.3683L42.4554,51.1041L42.3972,50.8404L42.3373,50.5773L42.2758,50.3148L42.2128,50.053L42.1482,49.7917L42.082,49.5311L42.0142,49.2711L41.9449,49.0118L41.8741,48.7531L41.8016,48.495L41.7277,48.2376L41.6521,47.9808L41.5751,47.7247L41.4965,47.4693L41.4164,47.2145L41.3348,46.9604L41.2516,46.707L41.167,46.4543L41.0808,46.2023L40.9932,45.951L40.9041,45.7004L40.8134,45.4505L40.7213,45.2013L40.6277,44.9528L40.5327,44.705L40.4361,44.458L40.3381,44.2117L40.2387,43.9662L40.1378,43.7214L40.0355,43.4774L39.9317,43.2341L39.8265,42.9915L39.7198,42.7498L39.6118,42.5088L39.5023,42.2686L39.3914,42.0292L39.2791,41.7906L39.1654,41.5527L39.0503,41.3157L38.9338,41.0795L38.8159,40.844L38.6966,40.6094L38.576,40.3756L38.454,40.1427L38.3306,39.9106L38.2059,39.6793L38.0798,39.4488L37.9523,39.2192L37.8235,38.9905L37.6934,38.7626L37.562,38.5356L37.4292,38.3094L37.2951,38.0841L37.1597,37.8597L37.0229,37.6362L36.8849,37.4136L36.7455,37.1919L36.6049,36.9711L36.463,36.7511L36.3198,36.5321L36.1753,36.314L36.0295,36.0969L35.8825,35.8806L35.7342,35.6653L35.5846,35.451L35.4338,35.2375L35.2817,35.0251L35.1284,34.8135L34.9739,34.603L34.8181,34.3934L34.6611,34.1847L34.5029,33.9771L34.3435,33.7704L34.1828,33.5647L34.021,33.3601L33.8579,33.1564L33.6937,32.9537L33.5283,32.752L33.3617,32.5513L33.1939,32.3517L33.0249,32.153L32.8548,31.9554L32.6835,31.7589L32.511,31.5633L32.3374,31.3689L32.1626,31.1754L31.9867,30.9831L31.8097,30.7918L31.6316,30.6015L31.4523,30.4123L31.2719,30.2242L31.0903,30.0372L30.9077,29.8513L30.724,29.6665L30.5391,29.4827L30.3532,29.3001L30.1662,29.1186L29.9781,28.9382L29.7889,28.7589L29.5987,28.5807L29.4074,28.4037L29.215,28.2278L29.0216,28.053L28.8271,27.8794L28.6316,27.707L28.435,27.5357L28.2374,27.3655L28.0388,27.1965L27.8391,27.0288L27.6385,26.8621L27.4368,26.6967L27.2341,26.5325L27.0304,26.3694L26.8257,26.2075L26.62,26.0469L26.4133,25.8875L26.2057,25.7292L25.9971,25.5722L25.7875,25.4165L25.5769,25.2619L25.3654,25.1086L25.1529,24.9566L24.9395,24.8057L24.7251,24.6562L24.5098,24.5079L24.2936,24.3608L24.0764,24.2151L23.8583,24.0706L23.6393,23.9274L23.4194,23.7854L23.1985,23.6448L22.9768,23.5054L22.7542,23.3674L22.5307,23.2307L22.3063,23.0952L22.081,22.9611L21.8548,22.8283L21.6278,22.6969L21.3999,22.5668L21.1712,22.438L20.9416,22.3105L20.7111,22.1844L20.4798,22.0597L20.2477,21.9363L20.0147,21.8143L19.7809,21.6936L19.5463,21.5744L19.3109,21.4565L19.0747,21.34L18.8376,21.2249L18.5998,21.1112L18.3612,20.9988L18.1217,20.8879L17.8815,20.7785L17.6405,20.6704L17.3988,20.5637L17.1563,20.4585L16.913,20.3547L16.6689,20.2524L16.4241,20.1515L16.1786,20.052L15.9323,19.954L15.6853,19.8575L15.4375,19.7624L15.189,19.6688L14.9398,19.5767L14.6899,19.4861L14.4393,19.3969L14.1879,19.3093L13.9359,19.2231L13.6832,19.1385L13.4298,19.0553L13.1757,18.9737L12.9209,18.8936L12.6655,18.815L12.4094,18.7379L12.1526,18.6624L11.8952,18.5884L11.6371,18.516L11.3784,18.4451L11.119,18.3758L10.859,18.308L10.5984,18.2418L10.3372,18.1772L10.0753,18.1142L9.81282,18.0527L9.54974,17.9928L9.28604,17.9346L9.02176,17.8779L8.75687,17.8228L8.49141,17.7694L8.22536,17.7175L7.95873,17.6673L7.69154,17.6187L7.42378,17.5717L7.15546,17.5264L6.88658,17.4827L6.61716,17.4407L6.34719,17.4003L6.07668,17.3615L5.80564,17.3245L5.53407,17.2891L5.26198,17.2554L4.98937,17.2233L4.71625,17.193L4.44262,17.1643L4.16849,17.1373L3.89386,17.1121L3.61875,17.0885L3.34314,17.0666L3.06706,17.0465L2.79051,17.0281L2.51348,17.0114L2.23599,16.9964L1.95804,16.9832L1.67964,16.9718L1.40079,16.962L1.12149,16.9541L0.841763,16.9479L0.561601,16.9434L0.281011,16.9407L0,16.9398L0,0L256.052,0L256.052,112.981L241.033,128L0,128ZM1,127L240.619,127L255.052,112.566L255.052,1L1,1L1,15.9511L1.14685,15.9544L1.43247,15.9625L1.71765,15.9725L2.00237,15.9842L2.28664,15.9977L2.57045,16.013L2.85379,16.0301L3.13665,16.0489L3.41904,16.0695L3.70094,16.0919L3.98235,16.116L4.26326,16.1418L4.54367,16.1694L4.82358,16.1987L5.10297,16.2298L5.38184,16.2626L5.66019,16.2971L5.93801,16.3333L6.21529,16.3712L6.49203,16.4108L6.76822,16.4521L7.04386,16.4951L7.31894,16.5398L7.59345,16.5862L7.8674,16.6343L8.14077,16.684L8.41356,16.7354L8.68576,16.7884L8.95737,16.8431L9.22838,16.8995L9.49878,16.9575L9.76858,17.0171L10.0378,17.0783L10.3063,17.1412L10.5743,17.2057L10.8416,17.2718L11.1082,17.3396L11.3743,17.4089L11.6396,17.4798L11.9043,17.5524L12.1684,17.6265L12.4318,17.7022L12.6945,17.7794L12.9566,17.8583L13.2179,17.9387L13.4786,18.0207L13.7386,18.1042L13.9979,18.1893L14.2565,18.2759L14.5143,18.364L14.7715,18.4537L15.0279,18.5449L15.2837,18.6377L15.5386,18.7319L15.7929,18.8277L16.0464,18.925L16.2991,19.0237L16.5511,19.124L16.8023,19.2258L17.0528,19.329L17.3025,19.4337L17.5514,19.5399L17.7996,19.6476L18.0469,19.7567L18.2935,19.8673L18.5393,19.9793L18.7842,20.0927L19.0284,20.2077L19.2717,20.324L19.5142,20.4418L19.7559,20.561L19.9968,20.6816L20.2368,20.8036L20.476,20.927L20.7144,21.0519L20.9518,21.1781L21.1885,21.3057L21.4242,21.4347L21.6591,21.5651L21.8931,21.6969L22.1263,21.83L22.3585,21.9645L22.5899,22.1003L22.8204,22.2375L23.0499,22.376L23.2786,22.5159L23.5063,22.6572L23.7332,22.7997L23.9591,22.9436L24.1841,23.0888L24.4081,23.2353L24.6312,23.3831L24.8534,23.5322L25.0746,23.6826L25.2948,23.8343L25.5141,23.9873L25.7324,24.1416L25.9498,24.2972L26.1662,24.454L26.3816,24.6121L26.596,24.7714L26.8094,24.932L27.0218,25.0939L27.2332,25.257L27.4436,25.4213L27.653,25.5868L27.8613,25.7536L28.0687,25.9216L28.275,26.0909L28.4802,26.2613L28.6845,26.4329L28.8876,26.6058L29.0898,26.7798L29.2908,26.955L29.4908,27.1314L29.6897,27.309L29.8876,27.4878L30.0844,27.6677L30.2801,27.8488L30.4747,28.031L30.6682,28.2144L30.8606,28.3989L31.0518,28.5846L31.242,28.7714L31.4311,28.9594L31.619,29.1484L31.8058,29.3386L31.9915,29.5299L32.176,29.7223L32.3594,29.9158L32.5417,30.1104L32.7227,30.3061L32.9027,30.5028L33.0814,30.7007L33.259,30.8996L33.4354,31.0996L33.6106,31.3007L33.7846,31.5028L33.9575,31.706L34.1291,31.9102L34.2995,32.1155L34.4688,32.3218L34.6368,32.5291L34.8036,32.7375L34.9691,32.9469L35.1334,33.1573L35.2965,33.3687L35.4584,33.5811L35.619,33.7945L35.7783,34.0089L35.9364,34.2243L36.0932,34.4406L36.2488,34.658L36.403,34.8763L36.556,35.0956L36.7077,35.3159L36.8581,35.5371L37.0073,35.7592L37.1551,35.9823L37.3016,36.2064L37.4468,36.4313L37.5906,36.6572L37.7332,36.8841L37.8744,37.1118L38.0143,37.3405L38.1528,37.57L38.29,37.8005L38.4258,38.0319L38.5603,38.2641L38.6934,38.4973L38.8252,38.7313L38.9556,38.9662L39.0846,39.2019L39.2122,39.4386L39.3384,39.676L39.4632,39.9144L39.5867,40.1536L39.7087,40.3936L39.8293,40.6344L39.9485,40.8761L40.0662,41.1186L40.1826,41.362L40.2975,41.6061L40.411,41.8511L40.523,42.0968L40.6335,42.3434L40.7426,42.5908L40.8503,42.8389L40.9565,43.0878L41.0612,43.3375L41.1644,43.588L41.2662,43.8392L41.3664,44.0912L41.4652,44.3439L41.5625,44.5974L41.6582,44.8517L41.7525,45.1066L41.8452,45.3623L41.9364,45.6188L42.0261,45.8759L42.1142,46.1338L42.2009,46.3924L42.2859,46.6516L42.3694,46.9116L42.4514,47.1723L42.5318,47.4336L42.6106,47.6957L42.6879,47.9584L42.7636,48.2218L42.8377,48.4858L42.9102,48.7506L42.9811,49.0159L43.0505,49.2819L43.1182,49.5486L43.1843,49.8159L43.2488,50.0838L43.3117,50.3524L43.3729,50.6216L43.4325,50.8913L43.4905,51.1617L43.5469,51.4327L43.6015,51.7043L43.6546,51.9765L43.706,52.2493L43.7557,52.5227L43.8037,52.7966L43.8501,53.0711L43.8948,53.3462L43.9378,53.6218L43.9791,53.898L44.0187,54.1747L44.0566,54.452L44.0928,54.7298L44.1273,55.0081L44.1601,55.287L44.1911,55.5664L44.2204,55.8463L44.248,56.1267L44.2739,56.4076L44.298,56.689L44.3203,56.9709L44.3409,57.2532L44.3597,57.5361L44.3768,57.8194L44.3921,58.1032L44.4056,58.3875L44.4173,58.6722L44.4272,58.9573L44.4354,59.2429L44.4417,59.529L44.4462,59.8155L44.449,60.1024L44.4499,60.3897L44.449,60.677L44.4462,60.964L44.4417,61.2504L44.4354,61.5365L44.4272,61.8221L44.4173,62.1073L44.4056,62.392L44.3921,62.6762L44.3768,62.96L44.3597,63.2433L44.3409,63.5262L44.3203,63.8086L44.298,64.0905L44.2739,64.3719L44.248,64.6528L44.2204,64.9332L44.1911,65.2131L44.1601,65.4924L44.1273,65.7713L44.0928,66.0496L44.0566,66.3274L44.0187,66.6047L43.9791,66.8814L43.9378,67.1576L43.8948,67.4333L43.8501,67.7083L43.8037,67.9828L43.7557,68.2568L43.706,68.5301L43.6546,68.8029L43.6015,69.0751L43.5469,69.3467L43.4905,69.6177L43.4325,69.8881L43.3729,70.1579L43.3117,70.4271L43.2488,70.6956L43.1843,70.9635L43.1182,71.2308L43.0505,71.4975L42.9811,71.7635L42.9102,72.0289L42.8377,72.2936L42.7636,72.5576L42.6879,72.821L42.6106,73.0837L42.5318,73.3458L42.4514,73.6071L42.3694,73.8678L42.2859,74.1278L42.2009,74.3871L42.1142,74.6457L42.0261,74.9035L41.9364,75.1607L41.8452,75.4171L41.7525,75.6728L41.6582,75.9278L41.5625,76.182L41.4652,76.4355L41.3664,76.6882L41.2662,76.9402L41.1644,77.1915L41.0612,77.4419L40.9565,77.6916L40.8503,77.9405L40.7426,78.1887L40.6335,78.436L40.523,78.6826L40.411,78.9283L40.2975,79.1733L40.1826,79.4175L40.0662,79.6608L39.9485,79.9033L39.8293,80.145L39.7087,80.3859L39.5867,80.6259L39.4632,80.8651L39.3384,81.1034L39.2122,81.3409L39.0846,81.5775L38.9556,81.8133L38.8252,82.0482L38.6934,82.2822L38.5603,82.5153L38.4258,82.7476L38.29,82.9789L38.1528,83.2094L38.0143,83.439L37.8744,83.6676L37.7332,83.8954L37.5906,84.1222L37.4468,84.3481L37.3016,84.5731L37.1551,84.7971L37.0073,85.0202L36.8581,85.2424L36.7077,85.4636L36.556,85.6838L36.403,85.9031L36.2488,86.1214L36.0932,86.3388L35.9364,86.5552L35.7783,86.7706L35.619,86.9849L35.4584,87.1984L35.2965,87.4108L35.1334,87.6222L34.9691,87.8326L34.8036,88.042L34.6368,88.2503L34.4688,88.4577L34.2995,88.664L34.1291,88.8692L33.9575,89.0734L33.7846,89.2766L33.6106,89.4787L33.4354,89.6798L33.259,89.8798L33.0814,90.0787L32.9027,90.2766L32.7227,90.4734L32.5417,90.669L32.3594,90.8636L32.176,91.0571L31.9915,91.2495L31.8058,91.4408L31.619,91.631L31.4311,91.8201L31.242,92.008L31.0518,92.1948L30.8606,92.3805L30.6682,92.565L30.4747,92.7484L30.2801,92.9307L30.0844,93.1117L29.8876,93.2917L29.6897,93.4704L29.4908,93.648L29.2908,93.8244L29.0898,93.9996L28.8876,94.1737L28.6845,94.3465L28.4802,94.5181L28.275,94.6886L28.0687,94.8578L27.8613,95.0258L27.653,95.1926L27.4436,95.3581L27.2332,95.5225L27.0218,95.6856L26.8094,95.8474L26.596,96.008L26.3816,96.1674L26.1662,96.3254L25.9498,96.4823L25.7325,96.6378L25.5141,96.7921L25.2948,96.9451L25.0746,97.0968L24.8534,97.2472L24.6312,97.3963L24.4081,97.5441L24.1841,97.6907L23.9591,97.8359L23.7332,97.9797L23.5064,98.1223L23.2786,98.2635L23.0499,98.4034L22.8204,98.5419L22.5899,98.6791L22.3585,98.815L22.1263,98.9495L21.8932,99.0826L21.6591,99.2143L21.4242,99.3447L21.1885,99.4737L20.9518,99.6013L20.7144,99.7276L20.476,99.8524L20.2368,99.9758L19.9968,100.098L19.7559,100.218L19.5142,100.338L19.2717,100.455L19.0284,100.572L18.7842,100.687L18.5393,100.8L18.2935,100.912L18.0469,101.023L17.7996,101.132L17.5514,101.24L17.3025,101.346L17.0528,101.45L16.8024,101.554L16.5511,101.655L16.2991,101.756L16.0464,101.854L15.7929,101.952L15.5386,102.047L15.2837,102.142L15.0279,102.234L14.7715,102.326L14.5144,102.415L14.2565,102.504L13.9979,102.59L13.7386,102.675L13.4786,102.759L13.2179,102.841L12.9566,102.921L12.6945,103L12.4318,103.077L12.1684,103.153L11.9043,103.227L11.6396,103.3L11.3743,103.371L11.1082,103.44L10.8416,103.508L10.5743,103.574L10.3063,103.638L10.0378,103.701L9.76859,103.762L9.49879,103.822L9.22839,103.88L8.95737,103.936L8.68574,103.991L8.41356,104.044L8.14078,104.095L7.86738,104.145L7.59345,104.193L7.31895,104.24L7.04386,104.284L6.76821,104.327L6.49202,104.369L6.21529,104.408L5.93801,104.446L5.66019,104.482L5.38183,104.517L5.10298,104.55L4.8236,104.581L4.54368,104.61L4.26325,104.638L3.98236,104.663L3.70095,104.688L3.41904,104.71L3.13665,104.731L2.85378,104.749L2.57045,104.766L2.28665,104.782L2.00236,104.795L1.71764,104.807L1.43249,104.817L1.14684,104.825L1,104.828L1,127Z" style="fill:rgb(0,177,242);"/>
            </g>
        </g>
    </g>
</svg>
